<?xml version="1.0" encoding="iso-8859-1"?>
<!-- Generator: Adobe Illustrator 21.0.0, SVG Export Plug-In . SVG Version: 6.00 Build 0)  -->
<svg version="1.1" id="Capa_1" xmlns="http://www.w3.org/2000/svg" xmlns:xlink="http://www.w3.org/1999/xlink" x="0px" y="0px"
	 viewBox="0 0 512 512" style="enable-background:new 0 0 512 512;" xml:space="preserve">
<path style="fill:#CCCCCC;" d="M497.643,440.763c9.164,9.164,9.164,24.016,0,33.179c-4.582,4.582-10.586,6.873-16.59,6.873
	s-12.007-2.291-16.59-6.873l-94.912-94.9l-0.011-0.011c6.308-4.48,12.323-9.559,17.978-15.212
	c5.654-5.643,10.721-11.658,15.201-17.956h0.011L497.643,440.763z"/>
<path style="fill:#ADADAD;" d="M403.197,379.616c4.582-4.582,10.585-6.872,16.59-6.872c6.004,0,12.008,2.291,16.59,6.872
	l0.217,0.104l-33.861-33.857h-0.011c-4.48,6.297-9.547,12.312-15.201,17.955c-5.654,5.654-11.669,10.732-17.978,15.214l0.011,0.011
	l32.583,32.579C394.072,402.405,394.409,388.404,403.197,379.616z"/>
<rect x="7.5" y="31.202" style="fill:#A6E2E3;" width="476.255" height="209.907"/>
<path style="fill:#7CCBCC;" d="M188.516,241.111h270.413c-6.458-21.771-18.262-42.285-35.453-59.477
	c-55.096-55.097-144.409-55.097-199.506,0C206.778,198.826,194.974,219.34,188.516,241.111z"/>
<circle style="fill:#A6E2E3;" cx="286.339" cy="264.609" r="117.644"/>
<path style="fill:#C0EAEB;" d="M173.609,298.343c14.502,48.529,59.481,83.904,112.727,83.904s98.224-35.375,112.727-83.904H173.609z
	"/>
<path style="fill:#808080;" d="M426.961,241.111c5.902,35.989-2.178,73.83-24.242,104.752c-4.48,6.297-9.547,12.312-15.201,17.956
	c-5.654,5.654-11.669,10.732-17.978,15.212c-55.096,39.307-132.086,34.229-181.528-15.212
	c-33.405-33.405-46.552-79.393-39.443-122.708c4.604-28.124,17.753-55.096,39.443-76.786c55.096-55.096,144.41-55.096,199.506,0
	C409.21,186.015,422.357,212.987,426.961,241.111z M383.422,298.363c12.82-35.831,4.887-77.43-23.813-106.129
	c-39.68-39.68-104.007-39.68-143.687,0c-28.688,28.688-36.633,70.264-23.824,106.095c4.898,13.723,12.843,26.6,23.824,37.581
	c39.68,39.68,104.007,39.68,143.687,0C370.591,324.929,378.524,312.074,383.422,298.363z"/>
<path d="M262.468,255.078c1.465,1.465,3.384,2.197,5.304,2.197c1.919,0,3.839-0.732,5.304-2.197l14.646-14.646l14.646,14.646
	c1.465,1.464,3.385,2.197,5.304,2.197s3.839-0.732,5.304-2.197c2.929-2.929,2.929-7.678,0-10.606l-14.646-14.646l14.646-14.646
	c2.929-2.929,2.929-7.677,0-10.606s-7.677-2.93-10.607,0l-14.646,14.646l-14.646-14.646c-2.93-2.929-7.678-2.929-10.607,0
	s-2.929,7.678,0,10.606l14.646,14.646l-14.646,14.646C259.539,247.399,259.539,252.148,262.468,255.078z"/>
<path d="M364.909,186.928c-20.606-20.605-48.001-31.953-77.142-31.953c-29.141,0-56.536,11.347-77.141,31.953
	s-31.952,48.001-31.952,77.141s11.347,56.536,31.952,77.141s48.001,31.953,77.141,31.953c29.141,0,56.536-11.348,77.142-31.953
	C407.445,298.675,407.445,229.465,364.909,186.928z M221.235,197.535c17.772-17.772,41.399-27.559,66.533-27.559
	c25.134,0,48.763,9.787,66.534,27.559c25.21,25.21,33.095,61.284,23.659,93.291H197.519c-2.53-8.576-3.844-17.565-3.844-26.757
	C193.675,238.936,203.462,215.307,221.235,197.535z M354.302,330.604c-17.772,17.772-41.4,27.56-66.534,27.56
	c-25.134,0-48.763-9.787-66.533-27.56c-7.357-7.357-13.341-15.72-17.835-24.777h168.664
	C367.642,314.772,361.74,323.166,354.302,330.604z"/>
<path d="M502.947,435.459l-90.51-90.51c15.55-23.864,23.899-51.729,23.899-80.881c0-39.684-15.453-76.992-43.514-105.053
	c-28.062-28.061-65.37-43.515-105.054-43.515s-76.992,15.454-105.054,43.515c-28.061,28.061-43.514,65.369-43.514,105.053
	s15.453,76.992,43.514,105.053c28.964,28.963,67.009,43.445,105.054,43.445c28.185,0,56.366-7.957,80.858-23.853l90.532,90.532
	c6.036,6.035,13.964,9.053,21.894,9.053s15.859-3.018,21.896-9.053C515.018,467.174,515.018,447.532,502.947,435.459z
	 M193.321,358.517c-25.229-25.228-39.121-58.77-39.121-94.447s13.893-69.219,39.121-94.446
	c25.228-25.228,58.77-39.121,94.446-39.121s69.219,13.893,94.446,39.121c25.229,25.228,39.121,58.77,39.121,94.446
	c0,35.677-13.893,69.219-39.121,94.447C330.136,410.594,245.4,410.594,193.321,358.517z M492.339,468.64
	c-6.223,6.223-16.351,6.224-22.575,0l-88.838-88.838c4.107-3.311,8.082-6.866,11.895-10.679c3.797-3.797,7.355-7.77,10.684-11.889
	l88.833,88.833C498.563,452.29,498.563,462.416,492.339,468.64z"/>
<path d="M118.587,233.61H15V38.701h461.244v194.908h-19.064c-4.143,0-7.5,3.358-7.5,7.5c0,4.142,3.357,7.5,7.5,7.5h26.564
	c4.143,0,7.5-3.358,7.5-7.5V31.201c0-4.142-3.357-7.5-7.5-7.5H7.5c-4.143,0-7.5,3.358-7.5,7.5v209.909c0,4.142,3.357,7.5,7.5,7.5
	h111.086c4.143,0,7.5-3.358,7.5-7.5C126.087,236.967,122.73,233.61,118.587,233.61z"/>
<path d="M67.313,75.613c-4.143,0-7.5,3.358-7.5,7.5s3.357,7.5,7.5,7.5h356.619c4.143,0,7.5-3.358,7.5-7.5s-3.357-7.5-7.5-7.5H67.313
	z"/>
<g>
</g>
<g>
</g>
<g>
</g>
<g>
</g>
<g>
</g>
<g>
</g>
<g>
</g>
<g>
</g>
<g>
</g>
<g>
</g>
<g>
</g>
<g>
</g>
<g>
</g>
<g>
</g>
<g>
</g>
</svg>
