<?xml version="1.0" encoding="iso-8859-1"?>
<!-- Generator: Adobe Illustrator 19.0.0, SVG Export Plug-In . SVG Version: 6.00 Build 0)  -->
<svg version="1.1" id="Capa_1" xmlns="http://www.w3.org/2000/svg" xmlns:xlink="http://www.w3.org/1999/xlink" x="0px" y="0px"
	 viewBox="0 0 512 512" style="enable-background:new 0 0 512 512;" xml:space="preserve">
<path style="fill:#F47DCD;" d="M480.061,294.527c0-13.44,10.895-24.334,24.335-24.334v-28.385c-13.44,0-24.335-10.895-24.335-24.334
	s10.895-24.334,24.335-24.334v-22.223c-34.997,0-63.368-28.371-63.368-63.367H70.971c0,34.997-28.371,63.367-63.367,63.367v170.166
	c34.997,0,63.367,28.371,63.367,63.367h370.056c0-34.997,28.371-63.367,63.368-63.367V318.86
	C490.956,318.86,480.061,307.965,480.061,294.527z"/>
<path style="fill:#FCA2E2;" d="M393.925,143.964H118.075c-12.297,0-22.265,9.968-22.265,22.265V345.77
	c0,12.297,9.968,22.265,22.265,22.265h275.849c12.297,0,22.265-9.968,22.265-22.265V166.23
	C416.19,153.933,406.221,143.964,393.925,143.964z"/>
<path d="M149.015,265.271v-38.82c0-21.61,12.941-29.749,29.883-29.749c16.808,0,30.014,8.137,30.014,29.749v38.82
	c0,21.61-13.207,29.748-30.014,29.748C161.956,295.018,149.015,286.881,149.015,265.271z M194.772,226.451
	c0-11.74-6.003-17.209-15.874-17.209c-10.005,0-15.741,5.47-15.741,17.209v38.82c0,11.738,5.736,17.208,15.741,17.208
	c9.871,0,15.874-5.47,15.874-17.208V226.451z"/>
<path d="M271.475,289.015l-31.883-60.697v61.231c0,3.068-3.468,4.669-7.071,4.669c-3.468,0-7.071-1.601-7.071-4.669v-88.178
	c0-3.335,3.469-4.669,7.071-4.669c5.069,0,7.471,1.868,10.672,8.004l29.615,57.763v-61.231c0-3.201,3.602-4.536,7.071-4.536
	c3.602,0,7.071,1.334,7.071,4.536v88.311c0,3.068-3.468,4.669-7.071,4.669C276.41,294.219,273.342,292.484,271.475,289.015z"/>
<path d="M318.695,239.79h20.543c2.936,0,4.669,2.668,4.669,5.736c0,2.535-1.467,5.47-4.669,5.47h-20.544v30.682h39.62
	c2.936,0,4.669,2.935,4.669,6.403c0,2.935-1.467,6.137-4.669,6.137h-47.49c-3.068,0-6.271-1.601-6.271-4.669v-88.178
	c0-3.068,3.202-4.669,6.271-4.669h47.49c3.202,0,4.669,3.202,4.669,6.137c0,3.468-1.734,6.403-4.669,6.403h-39.62v30.548H318.695z"
	/>
<path d="M88.206,298.993v46.777c0,16.497,13.374,29.87,29.87,29.87h275.847c16.497,0,29.87-13.374,29.87-29.87V166.23
	c0-16.497-13.373-29.869-29.869-29.869H118.075c-16.497,0-29.869,13.373-29.869,29.869v97.276c0,4.199,3.405,7.604,7.604,7.604l0,0
	c4.199,0,7.604-3.405,7.604-7.604V166.23c0-8.098,6.564-14.661,14.661-14.661h275.848c8.098,0,14.662,6.565,14.662,14.662v179.539
	c0,8.098-6.565,14.662-14.662,14.662H118.075c-8.098,0-14.661-6.564-14.661-14.661v-46.778c0-4.199-3.405-7.604-7.604-7.604l0,0
	C91.61,291.389,88.206,294.793,88.206,298.993z"/>
<path d="M504.365,200.743c4.198-0.008,7.635-3.406,7.635-7.604v-22.223c0-4.242-3.47-7.596-7.713-7.604
	c-30.662-0.059-55.596-24.993-55.655-55.654c-0.008-4.242-3.362-7.713-7.604-7.713h-72.993c-4.199,0-7.604,3.405-7.604,7.604l0,0
	c0,4.199,3.405,7.604,7.604,7.604h65.795c3.537,33.075,29.888,59.424,62.964,62.963v8.335c-13.953,3.42-24.335,16.032-24.335,31.024
	s10.382,27.603,24.335,31.023v15.005c-13.953,3.42-24.335,16.032-24.335,31.024c0,14.992,10.382,27.603,24.335,31.023v8.335
	c-33.075,3.537-59.425,29.888-62.964,62.964H78.172c-3.538-33.075-29.888-59.425-62.964-62.964v-155.77
	c33.075-3.537,59.424-29.888,62.963-62.963h254.378c4.199,0,7.604-3.405,7.604-7.604l0,0c0-4.199-3.405-7.604-7.604-7.604H70.971
	c-4.242,0-7.596,3.47-7.604,7.713c-0.059,30.661-24.992,55.595-55.654,55.654C3.47,163.32,0,166.674,0,170.916v170.168
	c0,4.242,3.47,7.596,7.713,7.604c30.662,0.059,55.595,24.993,55.654,55.655c0.008,4.242,3.362,7.713,7.604,7.713h370.056
	c4.242,0,7.596-3.47,7.604-7.713c0.059-30.662,24.993-55.596,55.655-55.655c4.242-0.008,7.713-3.362,7.713-7.604V318.86
	c0-4.198-3.437-7.596-7.635-7.604c-9.211-0.017-16.699-7.516-16.699-16.73c0-9.215,7.487-16.714,16.699-16.731
	c4.198-0.008,7.635-3.406,7.635-7.604v-28.385c0-4.198-3.437-7.596-7.635-7.604c-9.211-0.017-16.699-7.516-16.699-16.73
	C487.665,208.258,495.153,200.76,504.365,200.743z"/>
<path d="M362.456,330.049c4.2,0,7.604-3.404,7.604-7.604s-3.404-7.604-7.604-7.604h-204.8c-4.2,0-7.604,3.404-7.604,7.604
	s3.404,7.604,7.604,7.604H362.456z"/>
<g>
</g>
<g>
</g>
<g>
</g>
<g>
</g>
<g>
</g>
<g>
</g>
<g>
</g>
<g>
</g>
<g>
</g>
<g>
</g>
<g>
</g>
<g>
</g>
<g>
</g>
<g>
</g>
<g>
</g>
</svg>
